<svg width="114" height="172" viewBox="0 0 114 172" fill="none" xmlns="http://www.w3.org/2000/svg">
<path d="M28 0C40.4737 1.48748e-07 52.7981 2.71347 64.1184 7.9522C75.4387 13.1909 85.4839 20.8295 93.5573 30.3382C101.631 39.8468 107.539 50.9979 110.872 63.018C114.206 75.038 114.884 87.6394 112.861 99.9479C110.838 112.257 106.162 123.978 99.1566 134.298C92.1512 144.619 82.9846 153.293 72.2924 159.717C61.6003 166.141 49.6386 170.163 37.2371 171.502C24.8355 172.842 12.291 171.468 0.473454 167.476L7.06787 147.957C16.0543 150.993 25.5936 152.038 35.0242 151.019C44.4548 150 53.5508 146.942 61.6815 142.057C69.8122 137.172 76.7828 130.576 82.1099 122.728C87.437 114.88 90.9931 105.966 92.5315 96.6065C94.0699 87.2466 93.5538 77.6641 91.019 68.5237C88.4842 59.3832 83.9913 50.9035 77.852 43.6728C71.7128 36.4421 64.0741 30.6335 55.4657 26.6498C46.8574 22.6661 37.4854 20.6026 28 20.6026V0Z" fill="#5570F1"/>
</svg>
