<svg width="93" height="19" viewBox="0 0 93 19" fill="none" xmlns="http://www.w3.org/2000/svg">
<rect width="93" height="19" rx="8" fill="#32936F" fill-opacity="0.12"/>
<path d="M23.0795 8H22.0227C21.9602 7.69602 21.8509 7.42898 21.6946 7.19886C21.5412 6.96875 21.3537 6.77557 21.1321 6.61932C20.9134 6.46023 20.6705 6.34091 20.4034 6.26136C20.1364 6.18182 19.858 6.14205 19.5682 6.14205C19.0398 6.14205 18.5611 6.27557 18.1321 6.54261C17.706 6.80966 17.3665 7.20312 17.1136 7.72301C16.8636 8.2429 16.7386 8.88068 16.7386 9.63636C16.7386 10.392 16.8636 11.0298 17.1136 11.5497C17.3665 12.0696 17.706 12.4631 18.1321 12.7301C18.5611 12.9972 19.0398 13.1307 19.5682 13.1307C19.858 13.1307 20.1364 13.0909 20.4034 13.0114C20.6705 12.9318 20.9134 12.8139 21.1321 12.6577C21.3537 12.4986 21.5412 12.304 21.6946 12.0739C21.8509 11.8409 21.9602 11.5739 22.0227 11.2727H23.0795C23 11.7187 22.8551 12.1179 22.6449 12.4702C22.4347 12.8224 22.1733 13.1222 21.8608 13.3693C21.5483 13.6136 21.1974 13.7997 20.8082 13.9276C20.4219 14.0554 20.0085 14.1193 19.5682 14.1193C18.8239 14.1193 18.1619 13.9375 17.5824 13.5739C17.0028 13.2102 16.5469 12.6932 16.2145 12.0227C15.8821 11.3523 15.7159 10.5568 15.7159 9.63636C15.7159 8.71591 15.8821 7.92045 16.2145 7.25C16.5469 6.57955 17.0028 6.0625 17.5824 5.69886C18.1619 5.33523 18.8239 5.15341 19.5682 5.15341C20.0085 5.15341 20.4219 5.21733 20.8082 5.34517C21.1974 5.47301 21.5483 5.66051 21.8608 5.90767C22.1733 6.15199 22.4347 6.45028 22.6449 6.80256C22.8551 7.15199 23 7.55114 23.0795 8ZM27.31 14.1364C26.7191 14.1364 26.2006 13.9957 25.7546 13.7145C25.3114 13.4332 24.9648 13.0398 24.7148 12.5341C24.4677 12.0284 24.3441 11.4375 24.3441 10.7614C24.3441 10.0795 24.4677 9.48437 24.7148 8.97585C24.9648 8.46733 25.3114 8.07244 25.7546 7.79119C26.2006 7.50994 26.7191 7.36932 27.31 7.36932C27.9009 7.36932 28.418 7.50994 28.8612 7.79119C29.3072 8.07244 29.6538 8.46733 29.9009 8.97585C30.1509 9.48437 30.2759 10.0795 30.2759 10.7614C30.2759 11.4375 30.1509 12.0284 29.9009 12.5341C29.6538 13.0398 29.3072 13.4332 28.8612 13.7145C28.418 13.9957 27.9009 14.1364 27.31 14.1364ZM27.31 13.233C27.7589 13.233 28.1282 13.1179 28.418 12.8878C28.7077 12.6577 28.9222 12.3551 29.0614 11.9801C29.2006 11.6051 29.2702 11.1989 29.2702 10.7614C29.2702 10.3239 29.2006 9.91619 29.0614 9.53835C28.9222 9.16051 28.7077 8.85511 28.418 8.62216C28.1282 8.3892 27.7589 8.27273 27.31 8.27273C26.8612 8.27273 26.4918 8.3892 26.2021 8.62216C25.9123 8.85511 25.6978 9.16051 25.5586 9.53835C25.4194 9.91619 25.3498 10.3239 25.3498 10.7614C25.3498 11.1989 25.4194 11.6051 25.5586 11.9801C25.6978 12.3551 25.9123 12.6577 26.2021 12.8878C26.4918 13.1179 26.8612 13.233 27.31 13.233ZM31.8111 14V7.45455H32.7827V8.47727H32.8679C33.0043 8.12784 33.2244 7.85653 33.5284 7.66335C33.8324 7.46733 34.1974 7.36932 34.6236 7.36932C35.0554 7.36932 35.4148 7.46733 35.7017 7.66335C35.9915 7.85653 36.2173 8.12784 36.3793 8.47727H36.4474C36.6151 8.1392 36.8665 7.87074 37.2017 7.67188C37.5369 7.47017 37.9389 7.36932 38.4077 7.36932C38.9929 7.36932 39.4716 7.55256 39.8438 7.91903C40.2159 8.28267 40.402 8.84943 40.402 9.61932V14H39.3963V9.61932C39.3963 9.13636 39.2642 8.79119 39 8.58381C38.7358 8.37642 38.4247 8.27273 38.0668 8.27273C37.6065 8.27273 37.25 8.41193 36.9972 8.69034C36.7443 8.96591 36.6179 9.31534 36.6179 9.73864V14H35.5952V9.51705C35.5952 9.14489 35.4744 8.84517 35.233 8.6179C34.9915 8.38778 34.6804 8.27273 34.2997 8.27273C34.0384 8.27273 33.794 8.34233 33.5668 8.48153C33.3423 8.62074 33.1605 8.81392 33.0213 9.06108C32.8849 9.3054 32.8168 9.58807 32.8168 9.90909V14H31.8111ZM42.2408 16.4545V7.45455H43.2124V8.49432H43.3317C43.4055 8.38068 43.5078 8.2358 43.6385 8.05966C43.772 7.88068 43.9624 7.72159 44.2095 7.58239C44.4595 7.44034 44.7976 7.36932 45.2237 7.36932C45.7749 7.36932 46.2607 7.5071 46.6811 7.78267C47.1016 8.05824 47.4297 8.44886 47.6655 8.95455C47.9013 9.46023 48.0192 10.0568 48.0192 10.7443C48.0192 11.4375 47.9013 12.0384 47.6655 12.5469C47.4297 13.0526 47.103 13.4446 46.6854 13.723C46.2678 13.9986 45.7862 14.1364 45.2408 14.1364C44.8203 14.1364 44.4837 14.0668 44.2308 13.9276C43.978 13.7855 43.7834 13.625 43.647 13.446C43.5107 13.2642 43.4055 13.1136 43.3317 12.9943H43.2464V16.4545H42.2408ZM43.2294 10.7273C43.2294 11.2216 43.3018 11.6577 43.4467 12.0355C43.5916 12.4105 43.8033 12.7045 44.0817 12.9176C44.3601 13.1278 44.701 13.233 45.1044 13.233C45.5249 13.233 45.8757 13.1222 46.157 12.9006C46.4411 12.6761 46.6541 12.375 46.7962 11.9972C46.9411 11.6165 47.0135 11.1932 47.0135 10.7273C47.0135 10.267 46.9425 9.85227 46.8004 9.48295C46.6612 9.1108 46.4496 8.81676 46.1655 8.60085C45.8842 8.3821 45.5305 8.27273 45.1044 8.27273C44.6953 8.27273 44.3516 8.37642 44.0732 8.58381C43.7947 8.78835 43.5845 9.07528 43.4425 9.4446C43.3004 9.81108 43.2294 10.2386 43.2294 10.7273ZM50.5589 5.27273V14H49.5533V5.27273H50.5589ZM55.1452 14.1364C54.5146 14.1364 53.9705 13.9972 53.5131 13.7188C53.0586 13.4375 52.7077 13.0455 52.4606 12.5426C52.2163 12.0369 52.0941 11.4489 52.0941 10.7784C52.0941 10.108 52.2163 9.51705 52.4606 9.00568C52.7077 8.49148 53.0515 8.09091 53.4918 7.80398C53.935 7.5142 54.4521 7.36932 55.043 7.36932C55.3839 7.36932 55.7205 7.42614 56.0529 7.53977C56.3853 7.65341 56.6879 7.83807 56.9606 8.09375C57.2333 8.34659 57.4506 8.68182 57.6126 9.09943C57.7745 9.51705 57.8555 10.0312 57.8555 10.642V11.0682H52.81V10.1989H56.8327C56.8327 9.82955 56.7589 9.5 56.6112 9.21023C56.4663 8.92045 56.2589 8.69176 55.989 8.52415C55.7219 8.35653 55.4066 8.27273 55.043 8.27273C54.6424 8.27273 54.2958 8.37216 54.0032 8.57102C53.7134 8.76705 53.4904 9.02273 53.3342 9.33807C53.1779 9.65341 53.0998 9.99148 53.0998 10.3523V10.9318C53.0998 11.4261 53.185 11.8452 53.3555 12.1889C53.5288 12.5298 53.7688 12.7898 54.0756 12.9688C54.3825 13.1449 54.739 13.233 55.1452 13.233C55.4094 13.233 55.6481 13.196 55.8612 13.1222C56.0771 13.0455 56.2631 12.9318 56.4194 12.7812C56.5756 12.6278 56.6964 12.4375 56.7816 12.2102L57.7532 12.483C57.6509 12.8125 57.479 13.1023 57.2376 13.3523C56.9961 13.5994 56.6978 13.7926 56.3427 13.9318C55.9876 14.0682 55.5884 14.1364 55.1452 14.1364ZM62.2319 7.45455V8.30682H58.8398V7.45455H62.2319ZM59.8285 5.88636H60.8342V12.125C60.8342 12.4091 60.8754 12.6222 60.9577 12.7642C61.043 12.9034 61.1509 12.9972 61.2816 13.0455C61.4151 13.0909 61.5558 13.1136 61.7035 13.1136C61.8143 13.1136 61.9052 13.108 61.9762 13.0966C62.0472 13.0824 62.104 13.071 62.1467 13.0625L62.3512 13.9659C62.283 13.9915 62.1879 14.017 62.0657 14.0426C61.9435 14.071 61.7887 14.0852 61.6012 14.0852C61.3171 14.0852 61.0387 14.0241 60.766 13.902C60.4961 13.7798 60.2717 13.5938 60.0927 13.3438C59.9165 13.0938 59.8285 12.7784 59.8285 12.3977V5.88636ZM66.4187 14.1364C65.788 14.1364 65.244 13.9972 64.7866 13.7188C64.332 13.4375 63.9812 13.0455 63.734 12.5426C63.4897 12.0369 63.3675 11.4489 63.3675 10.7784C63.3675 10.108 63.4897 9.51705 63.734 9.00568C63.9812 8.49148 64.3249 8.09091 64.7653 7.80398C65.2085 7.5142 65.7255 7.36932 66.3164 7.36932C66.6573 7.36932 66.994 7.42614 67.3263 7.53977C67.6587 7.65341 67.9613 7.83807 68.234 8.09375C68.5067 8.34659 68.7241 8.68182 68.886 9.09943C69.0479 9.51705 69.1289 10.0312 69.1289 10.642V11.0682H64.0835V10.1989H68.1062C68.1062 9.82955 68.0323 9.5 67.8846 9.21023C67.7397 8.92045 67.5323 8.69176 67.2624 8.52415C66.9954 8.35653 66.68 8.27273 66.3164 8.27273C65.9158 8.27273 65.5692 8.37216 65.2766 8.57102C64.9869 8.76705 64.7638 9.02273 64.6076 9.33807C64.4513 9.65341 64.3732 9.99148 64.3732 10.3523V10.9318C64.3732 11.4261 64.4585 11.8452 64.6289 12.1889C64.8022 12.5298 65.0423 12.7898 65.3491 12.9688C65.6559 13.1449 66.0124 13.233 66.4187 13.233C66.6829 13.233 66.9215 13.196 67.1346 13.1222C67.3505 13.0455 67.5366 12.9318 67.6928 12.7812C67.8491 12.6278 67.9698 12.4375 68.055 12.2102L69.0266 12.483C68.9244 12.8125 68.7525 13.1023 68.511 13.3523C68.2695 13.5994 67.9712 13.7926 67.6161 13.9318C67.261 14.0682 66.8619 14.1364 66.4187 14.1364ZM73.1303 14.1364C72.5849 14.1364 72.1033 13.9986 71.6857 13.723C71.2681 13.4446 70.9414 13.0526 70.7056 12.5469C70.4698 12.0384 70.3519 11.4375 70.3519 10.7443C70.3519 10.0568 70.4698 9.46023 70.7056 8.95455C70.9414 8.44886 71.2695 8.05824 71.69 7.78267C72.1104 7.5071 72.5962 7.36932 73.1474 7.36932C73.5735 7.36932 73.9102 7.44034 74.1573 7.58239C74.4073 7.72159 74.5977 7.88068 74.7283 8.05966C74.8619 8.2358 74.9656 8.38068 75.0394 8.49432H75.1246V5.27273H76.1303V14H75.1587V12.9943H75.0394C74.9656 13.1136 74.8604 13.2642 74.7241 13.446C74.5877 13.625 74.3931 13.7855 74.1403 13.9276C73.8874 14.0668 73.5508 14.1364 73.1303 14.1364ZM73.2667 13.233C73.6701 13.233 74.011 13.1278 74.2894 12.9176C74.5678 12.7045 74.7795 12.4105 74.9244 12.0355C75.0692 11.6577 75.1417 11.2216 75.1417 10.7273C75.1417 10.2386 75.0707 9.81108 74.9286 9.4446C74.7866 9.07528 74.5763 8.78835 74.2979 8.58381C74.0195 8.37642 73.6758 8.27273 73.2667 8.27273C72.8406 8.27273 72.4854 8.3821 72.2013 8.60085C71.9201 8.81676 71.7085 9.1108 71.5664 9.48295C71.4272 9.85227 71.3576 10.267 71.3576 10.7273C71.3576 11.1932 71.4286 11.6165 71.5707 11.9972C71.7156 12.375 71.9286 12.6761 72.2099 12.9006C72.494 13.1222 72.8462 13.233 73.2667 13.233Z" fill="#519C66"/>
</svg>
