<svg width="77" height="19" viewBox="0 0 77 19" fill="none" xmlns="http://www.w3.org/2000/svg">
<rect width="77" height="19" rx="8" fill="#F57E77" fill-opacity="0.12"/>
<path d="M16.0568 14V5.27273H19.0057C19.6903 5.27273 20.25 5.39631 20.6847 5.64347C21.1222 5.88778 21.446 6.21875 21.6562 6.63636C21.8665 7.05398 21.9716 7.51989 21.9716 8.03409C21.9716 8.5483 21.8665 9.01562 21.6562 9.43608C21.4489 9.85653 21.1278 10.1918 20.6932 10.4418C20.2585 10.6889 19.7017 10.8125 19.0227 10.8125H16.9091V9.875H18.9886C19.4574 9.875 19.8338 9.79403 20.1179 9.6321C20.402 9.47017 20.608 9.25142 20.7358 8.97585C20.8665 8.69744 20.9318 8.38352 20.9318 8.03409C20.9318 7.68466 20.8665 7.37216 20.7358 7.09659C20.608 6.82102 20.4006 6.60511 20.1136 6.44886C19.8267 6.28977 19.446 6.21023 18.9716 6.21023H17.1136V14H16.0568ZM26.2116 14.1364C25.581 14.1364 25.0369 13.9972 24.5795 13.7188C24.125 13.4375 23.7741 13.0455 23.527 12.5426C23.2827 12.0369 23.1605 11.4489 23.1605 10.7784C23.1605 10.108 23.2827 9.51705 23.527 9.00568C23.7741 8.49148 24.1179 8.09091 24.5582 7.80398C25.0014 7.5142 25.5185 7.36932 26.1094 7.36932C26.4503 7.36932 26.7869 7.42614 27.1193 7.53977C27.4517 7.65341 27.7543 7.83807 28.027 8.09375C28.2997 8.34659 28.517 8.68182 28.679 9.09943C28.8409 9.51705 28.9219 10.0312 28.9219 10.642V11.0682H23.8764V10.1989H27.8991C27.8991 9.82955 27.8253 9.5 27.6776 9.21023C27.5327 8.92045 27.3253 8.69176 27.0554 8.52415C26.7884 8.35653 26.473 8.27273 26.1094 8.27273C25.7088 8.27273 25.3622 8.37216 25.0696 8.57102C24.7798 8.76705 24.5568 9.02273 24.4006 9.33807C24.2443 9.65341 24.1662 9.99148 24.1662 10.3523V10.9318C24.1662 11.4261 24.2514 11.8452 24.4219 12.1889C24.5952 12.5298 24.8352 12.7898 25.142 12.9688C25.4489 13.1449 25.8054 13.233 26.2116 13.233C26.4759 13.233 26.7145 13.196 26.9276 13.1222C27.1435 13.0455 27.3295 12.9318 27.4858 12.7812C27.642 12.6278 27.7628 12.4375 27.848 12.2102L28.8196 12.483C28.7173 12.8125 28.5455 13.1023 28.304 13.3523C28.0625 13.5994 27.7642 13.7926 27.4091 13.9318C27.054 14.0682 26.6548 14.1364 26.2116 14.1364ZM31.4574 10.0625V14H30.4517V7.45455H31.4233V8.47727H31.5085C31.6619 8.14489 31.8949 7.87784 32.2074 7.67614C32.5199 7.47159 32.9233 7.36932 33.4176 7.36932C33.8608 7.36932 34.2486 7.46023 34.581 7.64205C34.9134 7.82102 35.1719 8.09375 35.3565 8.46023C35.5412 8.82386 35.6335 9.28409 35.6335 9.84091V14H34.6278V9.90909C34.6278 9.39489 34.4943 8.99432 34.2273 8.70739C33.9602 8.41761 33.5938 8.27273 33.1278 8.27273C32.8068 8.27273 32.5199 8.34233 32.267 8.48153C32.017 8.62074 31.8196 8.82386 31.6747 9.09091C31.5298 9.35795 31.4574 9.68182 31.4574 10.0625ZM39.9428 14.1364C39.3974 14.1364 38.9158 13.9986 38.4982 13.723C38.0806 13.4446 37.7539 13.0526 37.5181 12.5469C37.2823 12.0384 37.1644 11.4375 37.1644 10.7443C37.1644 10.0568 37.2823 9.46023 37.5181 8.95455C37.7539 8.44886 38.082 8.05824 38.5025 7.78267C38.9229 7.5071 39.4087 7.36932 39.9599 7.36932C40.386 7.36932 40.7227 7.44034 40.9698 7.58239C41.2198 7.72159 41.4102 7.88068 41.5408 8.05966C41.6744 8.2358 41.7781 8.38068 41.8519 8.49432H41.9371V5.27273H42.9428V14H41.9712V12.9943H41.8519C41.7781 13.1136 41.6729 13.2642 41.5366 13.446C41.4002 13.625 41.2056 13.7855 40.9528 13.9276C40.6999 14.0668 40.3633 14.1364 39.9428 14.1364ZM40.0792 13.233C40.4826 13.233 40.8235 13.1278 41.1019 12.9176C41.3803 12.7045 41.592 12.4105 41.7369 12.0355C41.8817 11.6577 41.9542 11.2216 41.9542 10.7273C41.9542 10.2386 41.8832 9.81108 41.7411 9.4446C41.5991 9.07528 41.3888 8.78835 41.1104 8.58381C40.832 8.37642 40.4883 8.27273 40.0792 8.27273C39.6531 8.27273 39.2979 8.3821 39.0138 8.60085C38.7326 8.81676 38.521 9.1108 38.3789 9.48295C38.2397 9.85227 38.1701 10.267 38.1701 10.7273C38.1701 11.1932 38.2411 11.6165 38.3832 11.9972C38.5281 12.375 38.7411 12.6761 39.0224 12.9006C39.3065 13.1222 39.6587 13.233 40.0792 13.233ZM44.9244 14V7.45455H45.93V14H44.9244ZM45.4357 6.36364C45.2397 6.36364 45.0707 6.29688 44.9286 6.16335C44.7894 6.02983 44.7198 5.86932 44.7198 5.68182C44.7198 5.49432 44.7894 5.33381 44.9286 5.20028C45.0707 5.06676 45.2397 5 45.4357 5C45.6317 5 45.7994 5.06676 45.9386 5.20028C46.0806 5.33381 46.1516 5.49432 46.1516 5.68182C46.1516 5.86932 46.0806 6.02983 45.9386 6.16335C45.7994 6.29688 45.6317 6.36364 45.4357 6.36364ZM48.7777 10.0625V14H47.772V7.45455H48.7436V8.47727H48.8288C48.9822 8.14489 49.2152 7.87784 49.5277 7.67614C49.8402 7.47159 50.2436 7.36932 50.7379 7.36932C51.1811 7.36932 51.5689 7.46023 51.9013 7.64205C52.2337 7.82102 52.4922 8.09375 52.6768 8.46023C52.8615 8.82386 52.9538 9.28409 52.9538 9.84091V14H51.9482V9.90909C51.9482 9.39489 51.8146 8.99432 51.5476 8.70739C51.2805 8.41761 50.9141 8.27273 50.4482 8.27273C50.1271 8.27273 49.8402 8.34233 49.5874 8.48153C49.3374 8.62074 49.1399 8.82386 48.995 9.09091C48.8501 9.35795 48.7777 9.68182 48.7777 10.0625ZM57.4336 16.5909C56.9478 16.5909 56.5302 16.5284 56.1808 16.4034C55.8313 16.2812 55.5401 16.1193 55.3072 15.9176C55.0771 15.7188 54.8938 15.5057 54.7575 15.2784L55.5586 14.7159C55.6495 14.8352 55.7646 14.9716 55.9038 15.125C56.043 15.2812 56.2333 15.4162 56.4748 15.5298C56.7191 15.6463 57.0387 15.7045 57.4336 15.7045C57.962 15.7045 58.3981 15.5767 58.7418 15.321C59.0856 15.0653 59.2575 14.6648 59.2575 14.1193V12.7898H59.1722C59.0984 12.9091 58.9933 13.0568 58.8569 13.233C58.7234 13.4062 58.5302 13.5611 58.2773 13.6974C58.0273 13.831 57.6893 13.8977 57.2631 13.8977C56.7347 13.8977 56.2603 13.7727 55.8398 13.5227C55.4222 13.2727 55.0913 12.9091 54.8469 12.4318C54.6055 11.9545 54.4847 11.375 54.4847 10.6932C54.4847 10.0227 54.6026 9.43892 54.8384 8.94176C55.0742 8.44176 55.4023 8.0554 55.8228 7.78267C56.2433 7.5071 56.729 7.36932 57.2802 7.36932C57.7063 7.36932 58.0444 7.44034 58.2944 7.58239C58.5472 7.72159 58.7404 7.88068 58.8739 8.05966C59.0103 8.2358 59.1154 8.38068 59.1893 8.49432H59.2915V7.45455H60.2631V14.1875C60.2631 14.75 60.1353 15.2074 59.8796 15.5597C59.6268 15.9148 59.2859 16.1747 58.8569 16.3395C58.4308 16.5071 57.9563 16.5909 57.4336 16.5909ZM57.3995 12.9943C57.8029 12.9943 58.1438 12.902 58.4222 12.7173C58.7006 12.5327 58.9123 12.267 59.0572 11.9205C59.2021 11.5739 59.2745 11.1591 59.2745 10.6761C59.2745 10.2045 59.2035 9.78835 59.0614 9.42756C58.9194 9.06676 58.7092 8.78409 58.4308 8.57955C58.1523 8.375 57.8086 8.27273 57.3995 8.27273C56.9734 8.27273 56.6183 8.38068 56.3342 8.59659C56.0529 8.8125 55.8413 9.10227 55.6992 9.46591C55.56 9.82955 55.4904 10.233 55.4904 10.6761C55.4904 11.1307 55.5614 11.5327 55.7035 11.8821C55.8484 12.2287 56.0614 12.5014 56.3427 12.7003C56.6268 12.8963 56.979 12.9943 57.3995 12.9943Z" fill="#CC5F5F"/>
</svg>
